<svg xmlns="http://www.w3.org/2000/svg" xmlns:xlink="http://www.w3.org/1999/xlink" version="1.0" x="0" y="0" width="2400" height="1311.9657353254445" viewBox="81.92300155639649 76.8524983215332 176.15399688720703 96.29500335693359" preserveAspectRatio="xMidYMid meet" color-interpolation-filters="sRGB"><g><defs><linearGradient id="92" x1="0%" y1="0%" x2="100%" y2="0%"><stop offset="0%" stop-color="#fa71cd"></stop> <stop offset="100%" stop-color="#9b59b6"></stop></linearGradient><linearGradient id="93" x1="0%" y1="0%" x2="100%" y2="0%"><stop offset="0%" stop-color="#f9d423"></stop> <stop offset="100%" stop-color="#f83600"></stop></linearGradient><linearGradient id="94" x1="0%" y1="0%" x2="100%" y2="0%"><stop offset="0%" stop-color="#0064d2"></stop> <stop offset="100%" stop-color="#1cb0f6"></stop></linearGradient><linearGradient id="95" x1="0%" y1="0%" x2="100%" y2="0%"><stop offset="0%" stop-color="#f00978"></stop> <stop offset="100%" stop-color="#3f51b1"></stop></linearGradient><linearGradient id="96" x1="0%" y1="0%" x2="100%" y2="0%"><stop offset="0%" stop-color="#7873f5"></stop> <stop offset="100%" stop-color="#ec77ab"></stop></linearGradient><linearGradient id="97" x1="0%" y1="0%" x2="100%" y2="0%"><stop offset="0%" stop-color="#f9d423"></stop> <stop offset="100%" stop-color="#e14fad"></stop></linearGradient><linearGradient id="98" x1="0%" y1="0%" x2="100%" y2="0%"><stop offset="0%" stop-color="#009efd"></stop> <stop offset="100%" stop-color="#2af598"></stop></linearGradient><linearGradient id="99" x1="0%" y1="0%" x2="100%" y2="0%"><stop offset="0%" stop-color="#ffcc00"></stop> <stop offset="100%" stop-color="#00b140"></stop></linearGradient><linearGradient id="100" x1="0%" y1="0%" x2="100%" y2="0%"><stop offset="0%" stop-color="#d51007"></stop> <stop offset="100%" stop-color="#ff8177"></stop></linearGradient><linearGradient id="102" x1="0%" y1="0%" x2="100%" y2="0%"><stop offset="0%" stop-color="#a2b6df"></stop> <stop offset="100%" stop-color="#0c3483"></stop></linearGradient><linearGradient id="103" x1="0%" y1="0%" x2="100%" y2="0%"><stop offset="0%" stop-color="#7ac5d8"></stop> <stop offset="100%" stop-color="#eea2a2"></stop></linearGradient><linearGradient id="104" x1="0%" y1="0%" x2="100%" y2="0%"><stop offset="0%" stop-color="#00ecbc"></stop> <stop offset="100%" stop-color="#007adf"></stop></linearGradient><linearGradient id="105" x1="0%" y1="0%" x2="100%" y2="0%"><stop offset="0%" stop-color="#b88746"></stop> <stop offset="100%" stop-color="#fdf5a6"></stop></linearGradient></defs><g fill="#fff" class="newinitialsvg-g newinitialsvg" transform="translate(83.6500015258789,78.57949829101562)"><g class="tp-name" transform="translate(0,0)"><g class="tp-graph" transform="translate(0, 0)" mask="url(#94c15ddb-3fa4-46fe-ba50-6a9dd0de9ffc)"><polyline fill-opacity="1" fill="#fff" x="0" y="0" width="50.330000000000005" height="54.685" points="0,0 50.330000000000005,12 50.330000000000005,66.685 0,78.685 0,12"></polyline> <g fill="#444" transform="translate(2.9949999237060574,15)"><g transform="scale(1)" fill="#fff"><path d="M2.27-22.75Q2.27-29.45 5.30-34.74Q8.32-40.04 13.55-43.00Q18.79-45.95 25.29-45.95L25.29-45.95Q32.89-45.95 38.61-42.05Q44.33-38.16 46.61-31.27L46.61-31.27L36.14-31.27Q34.58-34.52 31.75-36.14Q28.93-37.77 25.22-37.77L25.22-37.77Q21.25-37.77 18.17-35.91Q15.08-34.06 13.36-30.68Q11.63-27.30 11.63-22.75L11.63-22.75Q11.63-18.27 13.36-14.85Q15.08-11.44 18.17-9.59Q21.25-7.74 25.22-7.74L25.22-7.74Q28.93-7.74 31.75-9.39Q34.58-11.05 36.14-14.30L36.14-14.30L46.61-14.30Q44.33-7.35 38.64-3.48Q32.95 0.39 25.29 0.39L25.29 0.39Q18.79 0.39 13.55-2.57Q8.32-5.53 5.30-10.79Q2.27-16.05 2.27-22.75L2.27-22.75Z" transform="translate(-2.275, 48.1)"></path></g></g></g><g transform="translate(54.330000000000005, 0)"><g fill="#fff" transform="translate(0,15)"><g transform="scale(1)"><path d="M20.48 0.58Q15.28 0.58 11.12-1.72Q6.96-4.03 4.58-8.26Q2.21-12.48 2.21-18.00L2.21-18.00Q2.21-23.53 4.65-27.76Q7.08-31.98 11.31-34.29Q15.54-36.59 20.73-36.59L20.73-36.59Q25.94-36.59 30.16-34.29Q34.38-31.98 36.82-27.76Q39.26-23.53 39.26-18.00L39.26-18.00Q39.26-12.48 36.76-8.26Q34.26-4.03 30.00-1.72Q25.74 0.58 20.48 0.58L20.48 0.58ZM20.48-7.35Q22.95-7.35 25.12-8.55Q27.30-9.75 28.60-12.16Q29.90-14.56 29.90-18.00L29.90-18.00Q29.90-23.14 27.20-25.90Q24.51-28.67 20.61-28.67L20.61-28.67Q16.71-28.67 14.07-25.90Q11.44-23.14 11.44-18.00L11.44-18.00Q11.44-12.87 14.01-10.11Q16.57-7.35 20.48-7.35L20.48-7.35Z" transform="translate(-2.21, 48.1)"></path></g></g></g><g transform="translate(95.38, 0)"><g fill="#fff" transform="translate(0,15)"><g transform="scale(1)"><path d="M2.15-18.14Q2.15-23.60 4.32-27.82Q6.50-32.05 10.27-34.32Q14.04-36.59 18.66-36.59L18.66-36.59Q22.16-36.59 25.35-35.07Q28.54-33.54 30.42-31.01L30.42-31.01L30.42-48.10L39.65-48.10L39.65 0L30.42 0L30.42-5.33Q28.73-2.67 25.68-1.04Q22.62 0.58 18.59 0.58L18.59 0.58Q14.04 0.58 10.27-1.76Q6.50-4.09 4.32-8.35Q2.15-12.61 2.15-18.14L2.15-18.14ZM30.48-18.00Q30.48-21.32 29.19-23.69Q27.89-26.07 25.68-27.33Q23.46-28.60 20.93-28.60L20.93-28.60Q18.39-28.60 16.25-27.37Q14.11-26.13 12.77-23.76Q11.44-21.39 11.44-18.14L11.44-18.14Q11.44-14.88 12.77-12.45Q14.11-10.01 16.28-8.71Q18.46-7.41 20.93-7.41L20.93-7.41Q23.46-7.41 25.68-8.68Q27.89-9.95 29.19-12.32Q30.48-14.69 30.48-18.00L30.48-18.00Z" transform="translate(-2.145, 48.1)"></path></g></g></g><g transform="translate(136.885, 0)"><g fill="#fff" transform="translate(0,15)"><g transform="scale(1)"><path d="M37.96-18.79Q37.96-16.84 37.70-15.28L37.70-15.28L11.38-15.28Q11.70-11.38 14.11-9.17Q16.51-6.96 20.02-6.96L20.02-6.96Q25.09-6.96 27.23-11.31L27.23-11.31L37.05-11.31Q35.49-6.11 31.07-2.76Q26.65 0.58 20.21 0.58L20.21 0.58Q15.02 0.58 10.89-1.72Q6.76-4.03 4.45-8.26Q2.15-12.48 2.15-18.00L2.15-18.00Q2.15-23.60 4.42-27.82Q6.70-32.05 10.79-34.32Q14.88-36.59 20.21-36.59L20.21-36.59Q25.35-36.59 29.41-34.38Q33.48-32.18 35.72-28.11Q37.96-24.05 37.96-18.79L37.96-18.79ZM11.44-21.39L28.54-21.39Q28.47-24.89 26-27.01Q23.53-29.12 19.96-29.12L19.96-29.12Q16.57-29.12 14.27-27.07Q11.96-25.03 11.44-21.39L11.44-21.39Z" transform="translate(-2.145, 48.1)"></path></g></g></g></g> <g fill-rule="" class="tp-slogan" fill="#fff" transform="translate(63.62999725341797,84.68499755859375)"> <g transform="scale(1, 1)"><g transform="scale(1)"><path d="M0.62-3.94C0.62-3.30 0.71-2.72 0.88-2.21C1.05-1.71 1.29-1.28 1.60-0.93C1.91-0.58 2.27-0.32 2.69-0.13C3.11 0.05 3.57 0.14 4.07 0.14C4.57 0.14 5.02 0.04 5.41-0.16C5.80-0.36 6.16-0.64 6.47-1.00L5.90-1.61C5.65-1.33 5.38-1.11 5.09-0.96C4.81-0.81 4.48-0.73 4.09-0.73C3.72-0.73 3.38-0.81 3.08-0.96C2.78-1.11 2.52-1.33 2.32-1.61C2.11-1.89 1.95-2.23 1.83-2.62C1.71-3.02 1.66-3.46 1.66-3.96C1.66-4.45 1.72-4.89 1.84-5.28C1.96-5.67 2.12-6.01 2.34-6.28C2.56-6.56 2.82-6.77 3.12-6.92C3.42-7.07 3.76-7.14 4.14-7.14C4.48-7.14 4.77-7.07 5.02-6.94C5.27-6.81 5.50-6.63 5.71-6.41L6.28-7.04C6.04-7.30 5.75-7.53 5.39-7.72C5.03-7.92 4.61-8.02 4.13-8.02C3.62-8.02 3.16-7.92 2.73-7.73C2.30-7.55 1.93-7.28 1.62-6.92C1.31-6.57 1.06-6.14 0.89-5.64C0.71-5.14 0.62-4.57 0.62-3.94ZM7.93-7.87L7.93 0L8.93 0L8.93-3.71L12.59-3.71L12.59 0L13.60 0L13.60-7.87L12.59-7.87L12.59-4.57L8.93-4.57L8.93-7.87ZM19.10-3.20L16.74-3.20L17.11-4.40C17.26-4.84 17.39-5.28 17.52-5.72C17.65-6.15 17.77-6.60 17.89-7.06L17.94-7.06C18.07-6.60 18.20-6.15 18.32-5.72C18.45-5.28 18.59-4.84 18.73-4.40ZM19.36-2.40L20.10 0L21.17 0L18.50-7.87L17.38-7.87L14.71 0L15.73 0L16.49-2.40ZM23.28-4.14L23.28-7.07L24.60-7.07C25.22-7.07 25.69-6.96 26.02-6.76C26.34-6.55 26.51-6.18 26.51-5.66C26.51-5.15 26.34-4.77 26.02-4.52C25.69-4.27 25.22-4.14 24.60-4.14ZM26.60 0L27.73 0L25.74-3.43C26.28-3.57 26.70-3.82 27.02-4.19C27.34-4.56 27.50-5.05 27.50-5.66C27.50-6.07 27.44-6.42 27.30-6.70C27.16-6.98 26.97-7.20 26.73-7.38C26.49-7.56 26.19-7.68 25.85-7.76C25.51-7.83 25.14-7.87 24.74-7.87L22.28-7.87L22.28 0L23.28 0L23.28-3.32L24.71-3.32ZM29.26-7.87L29.26 0L33.70 0L33.70-0.85L30.25-0.85L30.25-7.87ZM35.09-7.87L35.09 0L39.74 0L39.74-0.85L36.08-0.85L36.08-3.71L39.07-3.71L39.07-4.56L36.08-4.56L36.08-7.03L39.62-7.03L39.62-7.87ZM42.68-3.05L42.68 0L43.69 0L43.69-3.05L46.06-7.87L45.01-7.87L44.00-5.65C43.88-5.36 43.76-5.08 43.62-4.80C43.48-4.52 43.35-4.23 43.21-3.94L43.16-3.94C43.03-4.23 42.90-4.52 42.78-4.80C42.66-5.08 42.54-5.36 42.41-5.65L41.39-7.87L40.32-7.87Z" transform="translate(-0.624, 8.016)"></path></g></g></g></g><mask id="94c15ddb-3fa4-46fe-ba50-6a9dd0de9ffc"><polyline fill-opacity="1" x="0" y="0" width="50.330000000000005" height="54.685" points="0,0 50.330000000000005,12 50.330000000000005,66.685 0,78.685 0,12" fill="white"></polyline> <g transform="translate(2.9949999237060574,15)" fill="black"><g transform="scale(1)"><path d="M2.27-22.75Q2.27-29.45 5.30-34.74Q8.32-40.04 13.55-43.00Q18.79-45.95 25.29-45.95L25.29-45.95Q32.89-45.95 38.61-42.05Q44.33-38.16 46.61-31.27L46.61-31.27L36.14-31.27Q34.58-34.52 31.75-36.14Q28.93-37.77 25.22-37.77L25.22-37.77Q21.25-37.77 18.17-35.91Q15.08-34.06 13.36-30.68Q11.63-27.30 11.63-22.75L11.63-22.75Q11.63-18.27 13.36-14.85Q15.08-11.44 18.17-9.59Q21.25-7.74 25.22-7.74L25.22-7.74Q28.93-7.74 31.75-9.39Q34.58-11.05 36.14-14.30L36.14-14.30L46.61-14.30Q44.33-7.35 38.64-3.48Q32.95 0.39 25.29 0.39L25.29 0.39Q18.79 0.39 13.55-2.57Q8.32-5.53 5.30-10.79Q2.27-16.05 2.27-22.75L2.27-22.75Z" transform="translate(-2.275, 48.1)"></path></g></g></mask><defs v-gra="od"></defs></g></svg>